<svg xmlns="http://www.w3.org/2000/svg" xmlns:xlink="http://www.w3.org/1999/xlink" width="335.2" height="45.9" viewBox="0 0 335.2 45.9"><defs><path id="a" d="M0 0h335.2v45.9H0z"/></defs><clipPath id="b"><use xlink:href="#a" overflow="visible"/></clipPath><path clip-path="url(#b)" fill="#333" d="M322.6 40.8V29.9l-6.2-22.1h6.3l3.1 14.5c1.1-4.8 2.3-9.7 3.4-14.5h6.1L329 29.9v10.9h-6.4zM305.4 22h.3c2.9 0 2.9-1.6 2.9-4.9 0-2.6 0-4.5-2.8-4.5h-.4V22zm-6.7 18.8v-33h8c5.9 0 8.2 3.5 8.2 9.3 0 7.5-3.6 9.5-9.5 9.5v14.1h-6.7zm-14.8-11.2h3.4l-1.7-12.2-1.7 12.2zm-8.4 11.2l7.1-33h5.9l7.1 33H289l-1.4-7h-4.3l-1.3 7h-6.5zm-13.2-19.3h1.9c2.2 0 2.6-3.3 2.6-4.5 0-1.2-.3-4.3-2.3-4.3h-2.2v8.8zm-6.7 19.3v-33h7.3c6.4 0 10.5 2.3 10.5 8.7 0 2.9-.4 6.6-4.5 8.4 1.6 5.2 3.3 10.5 5.2 15.9h-6.9l-3.8-15.2h-1.1v15.2h-6.7zm-17 0v-33h13.8v4.6h-7.1v9h5v4.7h-5v10.1h7.1v4.6h-13.8zm-22.8 0v-33h6.7v13.5h4.8V7.8h6.7v33h-6.7V26.1h-4.8v14.7h-6.7zm-14.4 0v-28h-4.8v-5h16.2v5H208v28h-6.6zm-72.9 0v-33h8l3.5 22 3.8-22h7.7v33h-4.9l-.1-23.2c-1.1 7.1-2.8 16.1-3.8 23.2h-5l-4-23.3-.1 23.3h-5.1zM104.9 30V18.9c0-6.5 2.3-11.7 9.6-11.7s9.7 5.1 9.7 11.7v10.9c0 6.4-2.3 11.6-9.7 11.6-7.2 0-9.6-5.1-9.6-11.4m12.6 1.5V17.2c0-2.1-.4-4.9-3-4.9-2.5 0-3 2.8-3 4.9v14.2c0 2.1.4 4.9 3 4.9s3-2.7 3-4.8m-34.2 9.3v-33h6.9c8.8 0 10.9 3.2 10.9 10.7v10.8c0 7.7-1.5 11.5-11 11.5h-6.8zm6.6-4.7h.1c3.4 0 4.3-.2 4.3-3.1V15.2c0-2.3-1.4-2.7-4.2-2.7h-.3v23.6zm-23.6 4.7v-33H80v4.6h-7.1v9h5v4.7h-5v10.1H80v4.6H66.3zM51.4 21.5h1.9c2.2 0 2.6-3.3 2.6-4.5 0-1.2-.3-4.3-2.3-4.3h-2.2v8.8zm-6.7 19.3v-33H52c6.4 0 10.5 2.3 10.5 8.7 0 2.9-.4 6.6-4.5 8.4 1.6 5.2 3.3 10.5 5.2 15.9h-6.9l-3.8-15.2h-1.1v15.2h-6.7zM21.2 30V18.9c0-6.5 2.3-11.7 9.6-11.7s9.7 5.1 9.7 11.7v10.9c0 6.4-2.3 11.6-9.7 11.6-7.2 0-9.6-5.1-9.6-11.4m12.6 1.5V17.2c0-2.1-.4-4.9-3-4.9-2.5 0-3 2.8-3 4.9v14.2c0 2.1.4 4.9 3 4.9s3-2.7 3-4.8M6.7 36.1h.6c3.5 0 4-1.7 4-5.5 0-3.2-.9-5.4-4-5.4h-.6v10.9zm0-15.3h1.1c2.5 0 3.1-2.1 3.1-4.6 0-3.9-1.6-3.9-3.8-3.9h-.4v8.5zM0 40.8v-33h6.8c5.6 0 10.1 1.4 10.1 8.5 0 3.5-1.7 5.3-5 6.4 4.3 1 5.9 4.2 5.9 8.3 0 6.6-3.2 9.7-9.7 9.7H0z"/><path clip-path="url(#b)" fill="#41B5D3" d="M167.8 26.2l4 13.9c1.2 4.3 5.9 6.8 10.5 5.4 4.6-1.3 7.3-5.9 6-10.2l-4-13.9-16.5 4.8z"/><path clip-path="url(#b)" fill="#EF4D45" d="M183.9 19.7l-4-13.9C178.7 1.5 174-1 169.4.4c-4.6 1.3-7.3 5.9-6 10.2l4 13.9 16.5-4.8z"/></svg>